# xmcd
#
# Track frame offsets:
#	150
#	22309
#	31807
#	54490
#	72785
#	82450
#	93491
#	107163
#	134545
#	153625
#	171423
#	184395
#	197762
#	219217
#	234919
#	248493
#	262782
#
# Disc length: 3713 seconds
#
# Revision: 1
# Processed by: cddbd v1.5.1PL0 Copyright (c) Steve Scherf et al.
# Submitted via: EasyCDDAExtractor 7.1.0.1
#
DISCID=f00e7f11
DTITLE=Crosstown Traffic  - El cielo está cayendo   
DYEAR=2004
DGENRE=Blues
TTITLE0=El cielo está cayendo
TTITLE1=Boggie del viejo club
TTITLE2=El blues de la cárcel
TTITLE3=Caminos cruzados
TTITLE4=Dinero
TTITLE5=Apocalipsis
TTITLE6=Sueños dorados
TTITLE7=Hormigas en la carretera
TTITLE8=Acara mi blues
TTITLE9=Abrázame, estoy tan solo
TTITLE10=Qué buen dia el de hoy
TTITLE11=Hombre de blues
TTITLE12=Nadie te conoce cuando estás arruinado
TTITLE13=Tiempo
TTITLE14=Nivram
TTITLE15=Tránsito congestionado
TTITLE16=Mi satisfacción
EXTD=
EXTT0=
EXTT1=
EXTT2=
EXTT3=
EXTT4=
EXTT5=
EXTT6=
EXTT7=
EXTT8=
EXTT9=
EXTT10=
EXTT11=
EXTT12=
EXTT13=
EXTT14=
EXTT15=
EXTT16=
PLAYORDER=
